<svg width="158" height="179" viewBox="0 0 158 179" fill="none" xmlns="http://www.w3.org/2000/svg">
<ellipse cx="5.07339" cy="5.33558" rx="5.07339" ry="5.33558" fill="white"/>
<ellipse cx="5.07339" cy="72.4115" rx="5.07339" ry="5.33558" fill="white"/>
<ellipse cx="5.07339" cy="139.487" rx="5.07339" ry="5.33558" fill="white"/>
<ellipse cx="5.07339" cy="38.8734" rx="5.07339" ry="5.33558" fill="white"/>
<ellipse cx="5.07339" cy="105.949" rx="5.07339" ry="5.33558" fill="white"/>
<ellipse cx="5.07339" cy="173.025" rx="5.07339" ry="5.33558" fill="white"/>
<ellipse cx="29.7155" cy="5.33558" rx="5.07339" ry="5.33558" fill="white"/>
<ellipse cx="29.7155" cy="72.4115" rx="5.07339" ry="5.33558" fill="white"/>
<ellipse cx="29.7155" cy="139.487" rx="5.07339" ry="5.33558" fill="white"/>
<ellipse cx="29.7155" cy="38.8734" rx="5.07339" ry="5.33558" fill="white"/>
<ellipse cx="29.7155" cy="105.949" rx="5.07339" ry="5.33558" fill="white"/>
<ellipse cx="29.7155" cy="173.025" rx="5.07339" ry="5.33558" fill="white"/>
<ellipse cx="54.3578" cy="5.33558" rx="5.07339" ry="5.33558" fill="white"/>
<ellipse cx="54.3578" cy="72.4115" rx="5.07339" ry="5.33558" fill="white"/>
<ellipse cx="54.3578" cy="139.487" rx="5.07339" ry="5.33558" fill="white"/>
<ellipse cx="54.3578" cy="38.8734" rx="5.07339" ry="5.33558" fill="white"/>
<ellipse cx="54.3578" cy="105.949" rx="5.07339" ry="5.33558" fill="white"/>
<ellipse cx="54.3578" cy="173.025" rx="5.07339" ry="5.33558" fill="white"/>
<ellipse cx="79" cy="5.33558" rx="5.07339" ry="5.33558" fill="white"/>
<ellipse cx="78.9999" cy="72.4115" rx="5.07339" ry="5.33558" fill="white"/>
<ellipse cx="78.9999" cy="139.487" rx="5.07339" ry="5.33558" fill="white"/>
<ellipse cx="78.9999" cy="38.8734" rx="5.07339" ry="5.33558" fill="white"/>
<ellipse cx="78.9999" cy="105.949" rx="5.07339" ry="5.33558" fill="white"/>
<ellipse cx="78.9999" cy="173.025" rx="5.07339" ry="5.33558" fill="white"/>
<ellipse cx="103.642" cy="5.33558" rx="5.07339" ry="5.33558" fill="white"/>
<ellipse cx="103.642" cy="72.4115" rx="5.07339" ry="5.33558" fill="white"/>
<ellipse cx="103.642" cy="139.487" rx="5.07339" ry="5.33558" fill="white"/>
<ellipse cx="103.642" cy="38.8734" rx="5.07339" ry="5.33558" fill="white"/>
<ellipse cx="103.642" cy="105.949" rx="5.07339" ry="5.33558" fill="white"/>
<ellipse cx="103.642" cy="173.025" rx="5.07339" ry="5.33558" fill="white"/>
<ellipse cx="128.284" cy="5.33558" rx="5.07339" ry="5.33558" fill="white"/>
<ellipse cx="128.284" cy="72.4115" rx="5.07339" ry="5.33558" fill="white"/>
<ellipse cx="128.284" cy="139.487" rx="5.07339" ry="5.33558" fill="white"/>
<ellipse cx="128.284" cy="38.8734" rx="5.07339" ry="5.33558" fill="white"/>
<ellipse cx="128.284" cy="105.949" rx="5.07339" ry="5.33558" fill="white"/>
<ellipse cx="128.284" cy="173.025" rx="5.07339" ry="5.33558" fill="white"/>
<ellipse cx="152.927" cy="5.33558" rx="5.07339" ry="5.33558" fill="white"/>
<ellipse cx="152.927" cy="72.4115" rx="5.07339" ry="5.33558" fill="white"/>
<ellipse cx="152.927" cy="139.487" rx="5.07339" ry="5.33558" fill="white"/>
<ellipse cx="152.927" cy="38.8734" rx="5.07339" ry="5.33558" fill="white"/>
<ellipse cx="152.927" cy="105.949" rx="5.07339" ry="5.33558" fill="white"/>
<ellipse cx="152.927" cy="173.025" rx="5.07339" ry="5.33558" fill="white"/>
</svg>
