<svg width="153" height="172" viewBox="0 0 153 172" fill="none" xmlns="http://www.w3.org/2000/svg">
<ellipse cx="4.88161" cy="5.13389" rx="4.88161" ry="5.13389" fill="#F08A49"/>
<ellipse cx="4.88161" cy="69.6742" rx="4.88161" ry="5.13389" fill="#F08A49"/>
<ellipse cx="4.88161" cy="134.214" rx="4.88161" ry="5.13389" fill="#F08A49"/>
<ellipse cx="4.88161" cy="37.404" rx="4.88161" ry="5.13389" fill="#F08A49"/>
<ellipse cx="4.88161" cy="101.944" rx="4.88161" ry="5.13389" fill="#F08A49"/>
<ellipse cx="4.88161" cy="166.485" rx="4.88161" ry="5.13389" fill="#F08A49"/>
<ellipse cx="28.5923" cy="5.13389" rx="4.88161" ry="5.13389" fill="#F08A49"/>
<ellipse cx="28.5923" cy="69.6742" rx="4.88161" ry="5.13389" fill="#F08A49"/>
<ellipse cx="28.5923" cy="134.214" rx="4.88161" ry="5.13389" fill="#F08A49"/>
<ellipse cx="28.5923" cy="37.404" rx="4.88161" ry="5.13389" fill="#F08A49"/>
<ellipse cx="28.5923" cy="101.944" rx="4.88161" ry="5.13389" fill="#F08A49"/>
<ellipse cx="28.5923" cy="166.485" rx="4.88161" ry="5.13389" fill="#F08A49"/>
<ellipse cx="52.303" cy="5.13389" rx="4.88161" ry="5.13389" fill="#F08A49"/>
<ellipse cx="52.303" cy="69.6742" rx="4.88161" ry="5.13389" fill="#F08A49"/>
<ellipse cx="52.303" cy="134.214" rx="4.88161" ry="5.13389" fill="#F08A49"/>
<ellipse cx="52.303" cy="37.404" rx="4.88161" ry="5.13389" fill="#F08A49"/>
<ellipse cx="52.303" cy="101.944" rx="4.88161" ry="5.13389" fill="#F08A49"/>
<ellipse cx="52.303" cy="166.485" rx="4.88161" ry="5.13389" fill="#F08A49"/>
<ellipse cx="76.0137" cy="5.13389" rx="4.88161" ry="5.13389" fill="#F08A49"/>
<ellipse cx="76.0137" cy="37.404" rx="4.88161" ry="5.13389" fill="#F08A49"/>
<ellipse cx="99.7244" cy="5.13389" rx="4.88161" ry="5.13389" fill="#F08A49"/>
<ellipse cx="99.7244" cy="37.404" rx="4.88161" ry="5.13389" fill="#F08A49"/>
<ellipse cx="123.435" cy="5.13389" rx="4.88161" ry="5.13389" fill="#F08A49"/>
<ellipse cx="123.435" cy="37.404" rx="4.88161" ry="5.13389" fill="#F08A49"/>
<ellipse cx="147.146" cy="5.13389" rx="4.88161" ry="5.13389" fill="#F08A49"/>
<ellipse cx="147.146" cy="37.404" rx="4.88161" ry="5.13389" fill="#F08A49"/>
</svg>
